# xmcd
#
# Track frame offsets: 
#        150
#        11777
#        24027
#        34250
#        46312
#        58020
#        69472
#        81992
#        95572
#        109125
#        119535
#        131437
#        140787
#        152372
#        162517
#        173837
#        187257
#        199812
#        213605
#
# Disc length: 2999 seconds
#
# Revision: 0
# Processed by: cddbd v1.4PL0 Copyright (c) Steve Scherf et al.
# Submitted via: ExactAudioCopy v0.90a11
#
DISCID=150bb513
DTITLE=Robert Ward - Hot Stuff
DYEAR=1900
DGENRE=
TTITLE0=I'm Tired
TTITLE1=Forgive Me Darling
TTITLE2=Uptown
TTITLE3=Your Love Is Real
TTITLE4=Something For Nothing
TTITLE5=Touch Me Not
TTITLE6=I'm Gonna Cry A River
TTITLE7=Workout
TTITLE8=Your Love Is Amazing
TTITLE9=Hot Stuff
TTITLE10=She's My Heart's Desire
TTITLE11=What To Do
TTITLE12=Let's Kiss And Make Up
TTITLE13=Take This Love I've Got
TTITLE14=The Swim
TTITLE15=I Found A Love
TTITLE16=My Love Is Strictly Reserved For You
TTITLE17=Fear No Evil
TTITLE18=Deeper In Love
EXTD=
EXTT0=
EXTT1=
EXTT2=
EXTT3=
EXTT4=
EXTT5=
EXTT6=
EXTT7=
EXTT8=
EXTT9=
EXTT10=
EXTT11=
EXTT12=
EXTT13=
EXTT14=
EXTT15=
EXTT16=
EXTT17=
EXTT18=
PLAYORDER=
